<svg xmlns="http://www.w3.org/2000/svg" viewBox="0 0 67.99 85.71"><defs><style>.\32 11fb134-b4f5-4185-a684-3663ef5a3475{fill:#f2f2f2;stroke:#fff;stroke-miterlimit:10;}</style></defs><title>Asset 2</title><g id="c8329e7b-f36c-4887-b386-a5cacd17ff08" data-name="Layer 2"><g id="72b5426a-3af7-420f-aed2-13aa4de65ece" data-name="Layer 1"><path class="211fb134-b4f5-4185-a684-3663ef5a3475" d="M16.25,7.43c9,.78,18.06,5.7,20,15.67.75,3.16-2,5.5-4.7,6.55C22.21,21.88,8.06,27.35,3,37.73-2.11,49.4.91,62,9.09,71.78c8.66,10,21.72,14,34.93,13.36-8.66-1.27-17.42-1.26-25-6.56S6,65.84,4.22,56.66C3,49.85,5.45,42.59,10.71,38.4c2.18-1.35,6-1,7.56,2h0c-.22,2.56-.44,5.12.61,7.79C23.11,58.82,35.38,63,46.55,59.06,56.14,55.52,63,47.61,66,37.29c4-13.06-.33-25.81-7.6-37C66.14,11.78,69.54,26,63.5,39.14,59.37,48.06,50.42,56.05,40,54.37c-3.54-.83-7.46-3.23-5.24-7.94,3.76-1.73,7.33-4.26,8.76-8.77A22.61,22.61,0,0,0,35.7,12C27.3,4.79,16.28,4.08,6,6.54Z"/></g></g></svg>